<svg xmlns="http://www.w3.org/2000/svg" width="96" height="96" viewBox="0 0 96 96">
  <defs>
    <linearGradient id="gold" x1="0%" y1="0%" x2="100%" y2="100%">
      <stop offset="0%" style="stop-color:#FFD700;stop-opacity:1" />
      <stop offset="100%" style="stop-color:#DAA520;stop-opacity:1" />
    </linearGradient>
    <linearGradient id="white" x1="0%" y1="0%" x2="100%" y2="100%">
      <stop offset="0%" style="stop-color:#FFFFFF;stop-opacity:1" />
      <stop offset="100%" style="stop-color:#F0F0F0;stop-opacity:1" />
    </linearGradient>
    <linearGradient id="brown" x1="0%" y1="0%" x2="100%" y2="100%">
      <stop offset="0%" style="stop-color:#8B4513;stop-opacity:1" />
      <stop offset="100%" style="stop-color:#5D3112;stop-opacity:1" />
    </linearGradient>
  </defs>
  
  <!-- Chef Hat -->
  <ellipse cx="48" cy="30" rx="36" ry="25" fill="url(#white)" stroke="url(#brown)" stroke-width="2" />
  <path d="M25 53 L30 35 C35 40 40 42 48 42 C56 42 61 40 66 35 L71 53 Z" fill="url(#white)" stroke="url(#brown)" stroke-width="2" />
  
  <!-- Base of Hat -->
  <rect x="25" y="53" width="46" height="8" rx="2" ry="2" fill="url(#brown)" />

  <!-- German Flag Accent -->
  <rect x="35" y="20" width="26" height="4" rx="2" ry="2" fill="#000" />
  <rect x="35" y="24" width="26" height="4" rx="2" ry="2" fill="#FF0000" />
  <rect x="35" y="28" width="26" height="4" rx="2" ry="2" fill="#FFCC00" />
  
  <!-- GutenEats Text -->
  <text x="48" y="70" font-family="Arial, sans-serif" font-size="10" font-weight="bold" text-anchor="middle" fill="url(#gold)">GutenEats</text>
</svg> 